v -0.028710 0.004092 0.008500
v -0.028518 0.005532 0.008500
v -0.028255 0.006962 0.008500
v -0.027919 0.008380 0.008500
v -0.027513 0.009782 0.008500
v -0.027036 0.011164 0.008500
v -0.026489 0.012522 0.008500
v -0.025874 0.013854 0.008500
v -0.025193 0.015156 0.008500
v -0.024445 0.016424 0.008500
v -0.023634 0.017655 0.008500
v -0.022760 0.018846 0.008500
v -0.021827 0.019994 0.008500
v -0.020835 0.021095 0.008500
v -0.019788 0.022147 0.008500
v -0.018688 0.023148 0.008500
v -0.017537 0.024093 0.008500
v -0.016339 0.024981 0.008500
v -0.015095 0.025810 0.008500
v -0.013809 0.026577 0.008500
v -0.012484 0.027279 0.008500
v -0.011124 0.027915 0.008500
v -0.009731 0.028484 0.008500
v -0.008309 0.028982 0.008500
v -0.006862 0.029410 0.008500
v -0.005392 0.029766 0.008500
v -0.003904 0.030047 0.008500
v -0.002401 0.030255 0.008500
v -0.000888 0.030387 0.008500
v 0.000633 0.030443 0.008500
v 0.002157 0.030424 0.008500
v -0.031680 0.004516 0.008500
v -0.031464 0.006103 0.008500
v -0.031168 0.007680 0.008500
v -0.030793 0.009242 0.008500
v -0.030340 0.010787 0.008500
v -0.029809 0.012309 0.008500
v -0.029202 0.013804 0.008500
v -0.028519 0.015270 0.008500
v -0.027763 0.016702 0.008500
v -0.026935 0.018097 0.008500
v -0.026037 0.019450 0.008500
v -0.025071 0.020759 0.008500
v -0.024039 0.022020 0.008500
v -0.022944 0.023230 0.008500
v -0.021787 0.024385 0.008500
v -0.020573 0.025482 0.008500
v -0.019303 0.026519 0.008500
v -0.017981 0.027492 0.008500
v -0.016609 0.028400 0.008500
v -0.015192 0.029239 0.008500
v -0.013733 0.030007 0.008500
v -0.012234 0.030702 0.008500
v -0.010701 0.031323 0.008500
v -0.009136 0.031866 0.008500
v -0.007543 0.032332 0.008500
v -0.005927 0.032718 0.008500
v -0.004291 0.033022 0.008500
v -0.002639 0.033245 0.008500
v -0.000975 0.033386 0.008500
v 0.000696 0.033443 0.008500
v 0.002370 0.033416 0.008500
vn 0.00000 0.00000 1.00000
vn 0.00000 0.00000 1.00000
vn 0.00000 0.00000 1.00000
vn 0.00000 0.00000 1.00000
vn 0.00000 0.00000 1.00000
vn 0.00000 0.00000 1.00000
vn 0.00000 0.00000 1.00000
vn 0.00000 0.00000 1.00000
vn 0.00000 0.00000 1.00000
vn 0.00000 0.00000 1.00000
vn 0.00000 0.00000 1.00000
vn 0.00000 0.00000 1.00000
vn 0.00000 0.00000 1.00000
vn 0.00000 0.00000 1.00000
vn 0.00000 0.00000 1.00000
vn 0.00000 0.00000 1.00000
vn 0.00000 0.00000 1.00000
vn 0.00000 0.00000 1.00000
vn 0.00000 0.00000 1.00000
vn 0.00000 0.00000 1.00000
vn 0.00000 0.00000 1.00000
vn 0.00000 0.00000 1.00000
vn 0.00000 0.00000 1.00000
vn 0.00000 0.00000 1.00000
vn 0.00000 0.00000 1.00000
vn 0.00000 0.00000 1.00000
vn 0.00000 0.00000 1.00000
vn 0.00000 0.00000 1.00000
vn 0.00000 0.00000 1.00000
vn 0.00000 0.00000 1.00000
vn 0.00000 0.00000 1.00000
vn 0.00000 0.00000 1.00000
vn 0.00000 0.00000 1.00000
vn 0.00000 0.00000 1.00000
vn 0.00000 0.00000 1.00000
vn 0.00000 0.00000 1.00000
vn 0.00000 0.00000 1.00000
vn 0.00000 0.00000 1.00000
vn 0.00000 0.00000 1.00000
vn 0.00000 0.00000 1.00000
vn 0.00000 0.00000 1.00000
vn 0.00000 0.00000 1.00000
vn 0.00000 0.00000 1.00000
vn 0.00000 0.00000 1.00000
vn 0.00000 0.00000 1.00000
vn 0.00000 0.00000 1.00000
vn 0.00000 0.00000 1.00000
vn 0.00000 0.00000 1.00000
vn 0.00000 0.00000 1.00000
vn 0.00000 0.00000 1.00000
vn 0.00000 0.00000 1.00000
vn 0.00000 0.00000 1.00000
vn 0.00000 0.00000 1.00000
vn 0.00000 0.00000 1.00000
vn 0.00000 0.00000 1.00000
vn 0.00000 0.00000 1.00000
vn 0.00000 0.00000 1.00000
vn 0.00000 0.00000 1.00000
vn 0.00000 0.00000 1.00000
vn 0.00000 0.00000 1.00000
vn 0.00000 0.00000 1.00000
vn 0.00000 0.00000 1.00000
f 1//1 2//2 32//32
f 2//2 3//3 33//33
f 3//3 4//4 34//34
f 4//4 5//5 35//35
f 5//5 6//6 36//36
f 6//6 7//7 37//37
f 7//7 8//8 38//38
f 8//8 9//9 39//39
f 9//9 10//10 40//40
f 10//10 11//11 41//41
f 11//11 12//12 42//42
f 12//12 13//13 43//43
f 13//13 14//14 44//44
f 14//14 15//15 45//45
f 15//15 16//16 46//46
f 16//16 17//17 47//47
f 17//17 18//18 48//48
f 18//18 19//19 49//49
f 19//19 20//20 50//50
f 20//20 21//21 51//51
f 21//21 22//22 52//52
f 22//22 23//23 53//53
f 23//23 24//24 54//54
f 24//24 25//25 55//55
f 25//25 26//26 56//56
f 26//26 27//27 57//57
f 27//27 28//28 58//58
f 28//28 29//29 59//59
f 29//29 30//30 60//60
f 30//30 31//31 61//61
f 2//2 33//33 32//32
f 3//3 34//34 33//33
f 4//4 35//35 34//34
f 5//5 36//36 35//35
f 6//6 37//37 36//36
f 7//7 38//38 37//37
f 8//8 39//39 38//38
f 9//9 40//40 39//39
f 10//10 41//41 40//40
f 11//11 42//42 41//41
f 12//12 43//43 42//42
f 13//13 44//44 43//43
f 14//14 45//45 44//44
f 15//15 46//46 45//45
f 16//16 47//47 46//46
f 17//17 48//48 47//47
f 18//18 49//49 48//48
f 19//19 50//50 49//49
f 20//20 51//51 50//50
f 21//21 52//52 51//51
f 22//22 53//53 52//52
f 23//23 54//54 53//53
f 24//24 55//55 54//54
f 25//25 56//56 55//55
f 26//26 57//57 56//56
f 27//27 58//58 57//57
f 28//28 59//59 58//58
f 29//29 60//60 59//59
f 30//30 61//61 60//60
f 31//31 62//62 61//61
