v 0.073280 -0.015972 0.060000
v 0.073743 -0.013674 0.060000
v 0.074134 -0.011364 0.060000
v 0.074453 -0.009042 0.060000
v 0.074699 -0.006711 0.060000
v 0.074872 -0.004374 0.060000
v 0.074972 -0.002032 0.060000
v 0.074999 0.000311 0.060000
v 0.074953 0.002654 0.060000
v 0.074833 0.004995 0.060000
v 0.074641 0.007331 0.060000
v 0.074375 0.009659 0.060000
v 0.074037 0.011978 0.060000
v 0.073627 0.014286 0.060000
v 0.073145 0.016579 0.060000
v 0.072591 0.018857 0.060000
v 0.071966 0.021115 0.060000
v 0.071271 0.023354 0.060000
v 0.070507 0.025569 0.060000
v 0.069674 0.027760 0.060000
v 0.068772 0.029923 0.060000
v 0.067804 0.032057 0.060000
v 0.066769 0.034160 0.060000
v 0.065669 0.036230 0.060000
v 0.064505 0.038264 0.060000
v 0.063278 0.040261 0.060000
v 0.061989 0.042218 0.060000
v 0.060640 0.044134 0.060000
v 0.059231 0.046007 0.060000
v 0.057765 0.047836 0.060000
v 0.056242 0.049617 0.060000
v 0.054664 0.051350 0.060000
v 0.053033 0.053033 0.060000
v 0.051350 0.054664 0.060000
v 0.049617 0.056242 0.060000
v 0.047836 0.057765 0.060000
v 0.046007 0.059231 0.060000
v 0.044134 0.060640 0.060000
v 0.042218 0.061989 0.060000
v 0.040261 0.063278 0.060000
v 0.038264 0.064505 0.060000
v 0.036230 0.065669 0.060000
v 0.034160 0.066769 0.060000
v 0.032057 0.067804 0.060000
v 0.029923 0.068772 0.060000
v 0.027760 0.069674 0.060000
v 0.025569 0.070507 0.060000
v 0.023354 0.071271 0.060000
v 0.021115 0.071966 0.060000
v 0.018857 0.072591 0.060000
v 0.016579 0.073145 0.060000
v 0.014286 0.073627 0.060000
v 0.011978 0.074037 0.060000
v 0.009659 0.074375 0.060000
v 0.007331 0.074641 0.060000
v 0.004995 0.074833 0.060000
v 0.002654 0.074953 0.060000
v 0.000311 0.074999 0.060000
v -0.002032 0.074972 0.060000
v -0.004374 0.074872 0.060000
v -0.006711 0.074699 0.060000
v -0.009042 0.074453 0.060000
v -0.011364 0.074134 0.060000
v -0.013674 0.073743 0.060000
v -0.015972 0.073280 0.060000
v 0.087936 -0.019166 0.060000
v 0.088491 -0.016409 0.060000
v 0.088961 -0.013636 0.060000
v 0.089344 -0.010850 0.060000
v 0.089639 -0.008053 0.060000
v 0.089847 -0.005249 0.060000
v 0.089967 -0.002439 0.060000
v 0.089999 0.000373 0.060000
v 0.089944 0.003185 0.060000
v 0.089800 0.005994 0.060000
v 0.089569 0.008797 0.060000
v 0.089250 0.011591 0.060000
v 0.088845 0.014374 0.060000
v 0.088352 0.017143 0.060000
v 0.087773 0.019895 0.060000
v 0.087109 0.022628 0.060000
v 0.086359 0.025339 0.060000
v 0.085526 0.028024 0.060000
v 0.084608 0.030683 0.060000
v 0.083608 0.033312 0.060000
v 0.082527 0.035908 0.060000
v 0.081364 0.038469 0.060000
v 0.080123 0.040992 0.060000
v 0.078803 0.043476 0.060000
v 0.077406 0.045917 0.060000
v 0.075933 0.048313 0.060000
v 0.074387 0.050662 0.060000
v 0.072768 0.052961 0.060000
v 0.071077 0.055209 0.060000
v 0.069318 0.057403 0.060000
v 0.067490 0.059540 0.060000
v 0.065597 0.061620 0.060000
v 0.063640 0.063640 0.060000
v 0.061620 0.065597 0.060000
v 0.059540 0.067490 0.060000
v 0.057403 0.069318 0.060000
v 0.055209 0.071077 0.060000
v 0.052961 0.072768 0.060000
v 0.050662 0.074387 0.060000
v 0.048313 0.075933 0.060000
v 0.045917 0.077406 0.060000
v 0.043476 0.078803 0.060000
v 0.040992 0.080123 0.060000
v 0.038469 0.081364 0.060000
v 0.035908 0.082527 0.060000
v 0.033312 0.083608 0.060000
v 0.030683 0.084608 0.060000
v 0.028024 0.085526 0.060000
v 0.025339 0.086359 0.060000
v 0.022628 0.087109 0.060000
v 0.019895 0.087773 0.060000
v 0.017143 0.088352 0.060000
v 0.014374 0.088845 0.060000
v 0.011591 0.089250 0.060000
v 0.008797 0.089569 0.060000
v 0.005994 0.089800 0.060000
v 0.003185 0.089944 0.060000
v 0.000373 0.089999 0.060000
v -0.002439 0.089967 0.060000
v -0.005249 0.089847 0.060000
v -0.008053 0.089639 0.060000
v -0.010850 0.089344 0.060000
v -0.013636 0.088961 0.060000
v -0.016409 0.088491 0.060000
v -0.019166 0.087936 0.060000
vn 0.00000 0.00000 -1.00000
vn 0.00000 0.00000 -1.00000
vn 0.00000 0.00000 -1.00000
vn 0.00000 0.00000 -1.00000
vn 0.00000 0.00000 -1.00000
vn 0.00000 0.00000 -1.00000
vn 0.00000 0.00000 -1.00000
vn 0.00000 0.00000 -1.00000
vn 0.00000 0.00000 -1.00000
vn 0.00000 0.00000 -1.00000
vn 0.00000 0.00000 -1.00000
vn 0.00000 0.00000 -1.00000
vn 0.00000 0.00000 -1.00000
vn 0.00000 0.00000 -1.00000
vn 0.00000 0.00000 -1.00000
vn 0.00000 0.00000 -1.00000
vn 0.00000 0.00000 -1.00000
vn 0.00000 0.00000 -1.00000
vn 0.00000 0.00000 -1.00000
vn 0.00000 0.00000 -1.00000
vn 0.00000 0.00000 -1.00000
vn 0.00000 0.00000 -1.00000
vn 0.00000 0.00000 -1.00000
vn 0.00000 0.00000 -1.00000
vn 0.00000 0.00000 -1.00000
vn 0.00000 0.00000 -1.00000
vn 0.00000 0.00000 -1.00000
vn 0.00000 0.00000 -1.00000
vn 0.00000 0.00000 -1.00000
vn 0.00000 0.00000 -1.00000
vn 0.00000 0.00000 -1.00000
vn 0.00000 0.00000 -1.00000
vn 0.00000 0.00000 -1.00000
vn 0.00000 0.00000 -1.00000
vn 0.00000 0.00000 -1.00000
vn 0.00000 0.00000 -1.00000
vn 0.00000 0.00000 -1.00000
vn 0.00000 0.00000 -1.00000
vn 0.00000 0.00000 -1.00000
vn 0.00000 0.00000 -1.00000
vn 0.00000 0.00000 -1.00000
vn 0.00000 0.00000 -1.00000
vn 0.00000 0.00000 -1.00000
vn 0.00000 0.00000 -1.00000
vn 0.00000 0.00000 -1.00000
vn 0.00000 0.00000 -1.00000
vn 0.00000 0.00000 -1.00000
vn 0.00000 0.00000 -1.00000
vn 0.00000 0.00000 -1.00000
vn 0.00000 0.00000 -1.00000
vn 0.00000 0.00000 -1.00000
vn 0.00000 0.00000 -1.00000
vn 0.00000 0.00000 -1.00000
vn 0.00000 0.00000 -1.00000
vn 0.00000 0.00000 -1.00000
vn 0.00000 0.00000 -1.00000
vn 0.00000 0.00000 -1.00000
vn 0.00000 0.00000 -1.00000
vn 0.00000 0.00000 -1.00000
vn 0.00000 0.00000 -1.00000
vn 0.00000 0.00000 -1.00000
vn 0.00000 0.00000 -1.00000
vn 0.00000 0.00000 -1.00000
vn 0.00000 0.00000 -1.00000
vn 0.00000 0.00000 -1.00000
vn 0.00000 0.00000 -1.00000
vn 0.00000 0.00000 -1.00000
vn 0.00000 0.00000 -1.00000
vn 0.00000 0.00000 -1.00000
vn 0.00000 0.00000 -1.00000
vn 0.00000 0.00000 -1.00000
vn 0.00000 0.00000 -1.00000
vn 0.00000 0.00000 -1.00000
vn 0.00000 0.00000 -1.00000
vn 0.00000 0.00000 -1.00000
vn 0.00000 0.00000 -1.00000
vn 0.00000 0.00000 -1.00000
vn 0.00000 0.00000 -1.00000
vn 0.00000 0.00000 -1.00000
vn 0.00000 0.00000 -1.00000
vn 0.00000 0.00000 -1.00000
vn 0.00000 0.00000 -1.00000
vn 0.00000 0.00000 -1.00000
vn 0.00000 0.00000 -1.00000
vn 0.00000 0.00000 -1.00000
vn 0.00000 0.00000 -1.00000
vn 0.00000 0.00000 -1.00000
vn 0.00000 0.00000 -1.00000
vn 0.00000 0.00000 -1.00000
vn 0.00000 0.00000 -1.00000
vn 0.00000 0.00000 -1.00000
vn 0.00000 0.00000 -1.00000
vn 0.00000 0.00000 -1.00000
vn 0.00000 0.00000 -1.00000
vn 0.00000 0.00000 -1.00000
vn 0.00000 0.00000 -1.00000
vn 0.00000 0.00000 -1.00000
vn 0.00000 0.00000 -1.00000
vn 0.00000 0.00000 -1.00000
vn 0.00000 0.00000 -1.00000
vn 0.00000 0.00000 -1.00000
vn 0.00000 0.00000 -1.00000
vn 0.00000 0.00000 -1.00000
vn 0.00000 0.00000 -1.00000
vn 0.00000 0.00000 -1.00000
vn 0.00000 0.00000 -1.00000
vn 0.00000 0.00000 -1.00000
vn 0.00000 0.00000 -1.00000
vn 0.00000 0.00000 -1.00000
vn 0.00000 0.00000 -1.00000
vn 0.00000 0.00000 -1.00000
vn 0.00000 0.00000 -1.00000
vn 0.00000 0.00000 -1.00000
vn 0.00000 0.00000 -1.00000
vn 0.00000 0.00000 -1.00000
vn 0.00000 0.00000 -1.00000
vn 0.00000 0.00000 -1.00000
vn 0.00000 0.00000 -1.00000
vn 0.00000 0.00000 -1.00000
vn 0.00000 0.00000 -1.00000
vn 0.00000 0.00000 -1.00000
vn 0.00000 0.00000 -1.00000
vn 0.00000 0.00000 -1.00000
vn 0.00000 0.00000 -1.00000
vn 0.00000 0.00000 -1.00000
vn 0.00000 0.00000 -1.00000
vn 0.00000 0.00000 -1.00000
vn 0.00000 0.00000 -1.00000
vn 0.00000 0.00000 -1.00000
vn 0.00000 0.00000 -1.00000
f 1//1 2//2 66//66
f 2//2 3//3 67//67
f 3//3 4//4 68//68
f 4//4 5//5 69//69
f 5//5 6//6 70//70
f 6//6 7//7 71//71
f 7//7 8//8 72//72
f 8//8 9//9 73//73
f 9//9 10//10 74//74
f 10//10 11//11 75//75
f 11//11 12//12 76//76
f 12//12 13//13 77//77
f 13//13 14//14 78//78
f 14//14 15//15 79//79
f 15//15 16//16 80//80
f 16//16 17//17 81//81
f 17//17 18//18 82//82
f 18//18 19//19 83//83
f 19//19 20//20 84//84
f 20//20 21//21 85//85
f 21//21 22//22 86//86
f 22//22 23//23 87//87
f 23//23 24//24 88//88
f 24//24 25//25 89//89
f 25//25 26//26 90//90
f 26//26 27//27 91//91
f 27//27 28//28 92//92
f 28//28 29//29 93//93
f 29//29 30//30 94//94
f 30//30 31//31 95//95
f 31//31 32//32 96//96
f 32//32 33//33 97//97
f 33//33 34//34 98//98
f 34//34 35//35 99//99
f 35//35 36//36 100//100
f 36//36 37//37 101//101
f 37//37 38//38 102//102
f 38//38 39//39 103//103
f 39//39 40//40 104//104
f 40//40 41//41 105//105
f 41//41 42//42 106//106
f 42//42 43//43 107//107
f 43//43 44//44 108//108
f 44//44 45//45 109//109
f 45//45 46//46 110//110
f 46//46 47//47 111//111
f 47//47 48//48 112//112
f 48//48 49//49 113//113
f 49//49 50//50 114//114
f 50//50 51//51 115//115
f 51//51 52//52 116//116
f 52//52 53//53 117//117
f 53//53 54//54 118//118
f 54//54 55//55 119//119
f 55//55 56//56 120//120
f 56//56 57//57 121//121
f 57//57 58//58 122//122
f 58//58 59//59 123//123
f 59//59 60//60 124//124
f 60//60 61//61 125//125
f 61//61 62//62 126//126
f 62//62 63//63 127//127
f 63//63 64//64 128//128
f 64//64 65//65 129//129
f 2//2 67//67 66//66
f 3//3 68//68 67//67
f 4//4 69//69 68//68
f 5//5 70//70 69//69
f 6//6 71//71 70//70
f 7//7 72//72 71//71
f 8//8 73//73 72//72
f 9//9 74//74 73//73
f 10//10 75//75 74//74
f 11//11 76//76 75//75
f 12//12 77//77 76//76
f 13//13 78//78 77//77
f 14//14 79//79 78//78
f 15//15 80//80 79//79
f 16//16 81//81 80//80
f 17//17 82//82 81//81
f 18//18 83//83 82//82
f 19//19 84//84 83//83
f 20//20 85//85 84//84
f 21//21 86//86 85//85
f 22//22 87//87 86//86
f 23//23 88//88 87//87
f 24//24 89//89 88//88
f 25//25 90//90 89//89
f 26//26 91//91 90//90
f 27//27 92//92 91//91
f 28//28 93//93 92//92
f 29//29 94//94 93//93
f 30//30 95//95 94//94
f 31//31 96//96 95//95
f 32//32 97//97 96//96
f 33//33 98//98 97//97
f 34//34 99//99 98//98
f 35//35 100//100 99//99
f 36//36 101//101 100//100
f 37//37 102//102 101//101
f 38//38 103//103 102//102
f 39//39 104//104 103//103
f 40//40 105//105 104//104
f 41//41 106//106 105//105
f 42//42 107//107 106//106
f 43//43 108//108 107//107
f 44//44 109//109 108//108
f 45//45 110//110 109//109
f 46//46 111//111 110//110
f 47//47 112//112 111//111
f 48//48 113//113 112//112
f 49//49 114//114 113//113
f 50//50 115//115 114//114
f 51//51 116//116 115//115
f 52//52 117//117 116//116
f 53//53 118//118 117//117
f 54//54 119//119 118//118
f 55//55 120//120 119//119
f 56//56 121//121 120//120
f 57//57 122//122 121//121
f 58//58 123//123 122//122
f 59//59 124//124 123//123
f 60//60 125//125 124//124
f 61//61 126//126 125//125
f 62//62 127//127 126//126
f 63//63 128//128 127//127
f 64//64 129//129 128//128
f 65//65 130//130 129//129
