v -0.015972 0.073280 0.060000
v -0.020837 0.072047 0.060000
v -0.025608 0.070493 0.060000
v -0.030265 0.068622 0.060000
v -0.034786 0.066445 0.060000
v -0.039152 0.063970 0.060000
v -0.043342 0.061208 0.060000
v -0.047339 0.058173 0.060000
v -0.051123 0.054877 0.060000
v -0.054678 0.051335 0.060000
v -0.057989 0.047563 0.060000
v -0.061040 0.043579 0.060000
v -0.063818 0.039399 0.060000
v -0.066310 0.035043 0.060000
v -0.068505 0.030531 0.060000
v -0.070393 0.025881 0.060000
v -0.071966 0.021115 0.060000
v -0.073217 0.016255 0.060000
v -0.074140 0.011323 0.060000
v -0.074732 0.006339 0.060000
v -0.074988 0.001327 0.060000
v -0.074909 -0.003690 0.060000
v -0.074495 -0.008692 0.060000
v -0.073747 -0.013654 0.060000
v -0.072668 -0.018555 0.060000
v -0.071265 -0.023373 0.060000
v -0.069542 -0.028087 0.060000
v -0.067508 -0.032675 0.060000
v -0.065172 -0.037116 0.060000
v -0.062544 -0.041391 0.060000
v -0.059636 -0.045481 0.060000
v -0.056461 -0.049368 0.060000
v -0.053033 -0.053033 0.060000
v -0.049368 -0.056461 0.060000
v -0.045481 -0.059636 0.060000
v -0.041391 -0.062544 0.060000
v -0.037116 -0.065172 0.060000
v -0.032675 -0.067508 0.060000
v -0.028087 -0.069542 0.060000
v -0.023373 -0.071265 0.060000
v -0.018555 -0.072668 0.060000
v -0.013654 -0.073747 0.060000
v -0.008692 -0.074495 0.060000
v -0.003690 -0.074909 0.060000
v 0.001327 -0.074988 0.060000
v 0.006339 -0.074732 0.060000
v 0.011323 -0.074140 0.060000
v 0.016255 -0.073217 0.060000
v 0.021115 -0.071966 0.060000
v 0.025881 -0.070393 0.060000
v 0.030531 -0.068505 0.060000
v 0.035043 -0.066310 0.060000
v 0.039399 -0.063818 0.060000
v 0.043579 -0.061040 0.060000
v 0.047563 -0.057989 0.060000
v 0.051335 -0.054678 0.060000
v 0.054877 -0.051123 0.060000
v 0.058173 -0.047339 0.060000
v 0.061208 -0.043342 0.060000
v 0.063970 -0.039152 0.060000
v 0.066445 -0.034786 0.060000
v 0.068622 -0.030265 0.060000
v 0.070493 -0.025608 0.060000
v 0.072047 -0.020837 0.060000
v 0.073280 -0.015972 0.060000
v -0.019166 0.087936 0.060000
v -0.025004 0.086457 0.060000
v -0.030730 0.084591 0.060000
v -0.036318 0.082347 0.060000
v -0.041744 0.079734 0.060000
v -0.046982 0.076764 0.060000
v -0.052011 0.073450 0.060000
v -0.056806 0.069807 0.060000
v -0.061347 0.065852 0.060000
v -0.065614 0.061602 0.060000
v -0.069587 0.057076 0.060000
v -0.073248 0.052295 0.060000
v -0.076581 0.047279 0.060000
v -0.079571 0.042052 0.060000
v -0.082206 0.036637 0.060000
v -0.084472 0.031057 0.060000
v -0.086359 0.025339 0.060000
v -0.087861 0.019507 0.060000
v -0.088968 0.013587 0.060000
v -0.089678 0.007607 0.060000
v -0.089986 0.001593 0.060000
v -0.089891 -0.004429 0.060000
v -0.089394 -0.010430 0.060000
v -0.088496 -0.016385 0.060000
v -0.087202 -0.022266 0.060000
v -0.085518 -0.028048 0.060000
v -0.083451 -0.033704 0.060000
v -0.081010 -0.039210 0.060000
v -0.078206 -0.044539 0.060000
v -0.075053 -0.049670 0.060000
v -0.071563 -0.054578 0.060000
v -0.067753 -0.059241 0.060000
v -0.063640 -0.063640 0.060000
v -0.059241 -0.067753 0.060000
v -0.054578 -0.071563 0.060000
v -0.049670 -0.075053 0.060000
v -0.044539 -0.078206 0.060000
v -0.039210 -0.081010 0.060000
v -0.033704 -0.083451 0.060000
v -0.028048 -0.085518 0.060000
v -0.022266 -0.087202 0.060000
v -0.016385 -0.088496 0.060000
v -0.010430 -0.089394 0.060000
v -0.004429 -0.089891 0.060000
v 0.001593 -0.089986 0.060000
v 0.007607 -0.089678 0.060000
v 0.013587 -0.088968 0.060000
v 0.019507 -0.087861 0.060000
v 0.025339 -0.086359 0.060000
v 0.031057 -0.084472 0.060000
v 0.036637 -0.082206 0.060000
v 0.042052 -0.079571 0.060000
v 0.047279 -0.076581 0.060000
v 0.052295 -0.073248 0.060000
v 0.057076 -0.069587 0.060000
v 0.061602 -0.065614 0.060000
v 0.065852 -0.061347 0.060000
v 0.069807 -0.056806 0.060000
v 0.073450 -0.052011 0.060000
v 0.076764 -0.046982 0.060000
v 0.079734 -0.041744 0.060000
v 0.082347 -0.036318 0.060000
v 0.084591 -0.030730 0.060000
v 0.086457 -0.025004 0.060000
v 0.087936 -0.019166 0.060000
vn 0.00000 0.00000 -1.00000
vn 0.00000 0.00000 -1.00000
vn 0.00000 0.00000 -1.00000
vn 0.00000 0.00000 -1.00000
vn 0.00000 0.00000 -1.00000
vn 0.00000 0.00000 -1.00000
vn 0.00000 0.00000 -1.00000
vn 0.00000 0.00000 -1.00000
vn 0.00000 0.00000 -1.00000
vn 0.00000 0.00000 -1.00000
vn 0.00000 0.00000 -1.00000
vn 0.00000 0.00000 -1.00000
vn 0.00000 0.00000 -1.00000
vn 0.00000 0.00000 -1.00000
vn 0.00000 0.00000 -1.00000
vn 0.00000 0.00000 -1.00000
vn 0.00000 0.00000 -1.00000
vn 0.00000 0.00000 -1.00000
vn 0.00000 0.00000 -1.00000
vn 0.00000 0.00000 -1.00000
vn 0.00000 0.00000 -1.00000
vn 0.00000 0.00000 -1.00000
vn 0.00000 0.00000 -1.00000
vn 0.00000 0.00000 -1.00000
vn 0.00000 0.00000 -1.00000
vn 0.00000 0.00000 -1.00000
vn 0.00000 0.00000 -1.00000
vn 0.00000 0.00000 -1.00000
vn 0.00000 0.00000 -1.00000
vn 0.00000 0.00000 -1.00000
vn 0.00000 0.00000 -1.00000
vn 0.00000 0.00000 -1.00000
vn 0.00000 0.00000 -1.00000
vn 0.00000 0.00000 -1.00000
vn 0.00000 0.00000 -1.00000
vn 0.00000 0.00000 -1.00000
vn 0.00000 0.00000 -1.00000
vn 0.00000 0.00000 -1.00000
vn 0.00000 0.00000 -1.00000
vn 0.00000 0.00000 -1.00000
vn 0.00000 0.00000 -1.00000
vn 0.00000 0.00000 -1.00000
vn 0.00000 0.00000 -1.00000
vn 0.00000 0.00000 -1.00000
vn 0.00000 0.00000 -1.00000
vn 0.00000 0.00000 -1.00000
vn 0.00000 0.00000 -1.00000
vn 0.00000 0.00000 -1.00000
vn 0.00000 0.00000 -1.00000
vn 0.00000 0.00000 -1.00000
vn 0.00000 0.00000 -1.00000
vn 0.00000 0.00000 -1.00000
vn 0.00000 0.00000 -1.00000
vn 0.00000 0.00000 -1.00000
vn 0.00000 0.00000 -1.00000
vn 0.00000 0.00000 -1.00000
vn 0.00000 0.00000 -1.00000
vn 0.00000 0.00000 -1.00000
vn 0.00000 0.00000 -1.00000
vn 0.00000 0.00000 -1.00000
vn 0.00000 0.00000 -1.00000
vn 0.00000 0.00000 -1.00000
vn 0.00000 0.00000 -1.00000
vn 0.00000 0.00000 -1.00000
vn 0.00000 0.00000 -1.00000
vn 0.00000 0.00000 -1.00000
vn 0.00000 0.00000 -1.00000
vn 0.00000 0.00000 -1.00000
vn 0.00000 0.00000 -1.00000
vn 0.00000 0.00000 -1.00000
vn 0.00000 0.00000 -1.00000
vn 0.00000 0.00000 -1.00000
vn 0.00000 0.00000 -1.00000
vn 0.00000 0.00000 -1.00000
vn 0.00000 0.00000 -1.00000
vn 0.00000 0.00000 -1.00000
vn 0.00000 0.00000 -1.00000
vn 0.00000 0.00000 -1.00000
vn 0.00000 0.00000 -1.00000
vn 0.00000 0.00000 -1.00000
vn 0.00000 0.00000 -1.00000
vn 0.00000 0.00000 -1.00000
vn 0.00000 0.00000 -1.00000
vn 0.00000 0.00000 -1.00000
vn 0.00000 0.00000 -1.00000
vn 0.00000 0.00000 -1.00000
vn 0.00000 0.00000 -1.00000
vn 0.00000 0.00000 -1.00000
vn 0.00000 0.00000 -1.00000
vn 0.00000 0.00000 -1.00000
vn 0.00000 0.00000 -1.00000
vn 0.00000 0.00000 -1.00000
vn 0.00000 0.00000 -1.00000
vn 0.00000 0.00000 -1.00000
vn 0.00000 0.00000 -1.00000
vn 0.00000 0.00000 -1.00000
vn 0.00000 0.00000 -1.00000
vn 0.00000 0.00000 -1.00000
vn 0.00000 0.00000 -1.00000
vn 0.00000 0.00000 -1.00000
vn 0.00000 0.00000 -1.00000
vn 0.00000 0.00000 -1.00000
vn 0.00000 0.00000 -1.00000
vn 0.00000 0.00000 -1.00000
vn 0.00000 0.00000 -1.00000
vn 0.00000 0.00000 -1.00000
vn 0.00000 0.00000 -1.00000
vn 0.00000 0.00000 -1.00000
vn 0.00000 0.00000 -1.00000
vn 0.00000 0.00000 -1.00000
vn 0.00000 0.00000 -1.00000
vn 0.00000 0.00000 -1.00000
vn 0.00000 0.00000 -1.00000
vn 0.00000 0.00000 -1.00000
vn 0.00000 0.00000 -1.00000
vn 0.00000 0.00000 -1.00000
vn 0.00000 0.00000 -1.00000
vn 0.00000 0.00000 -1.00000
vn 0.00000 0.00000 -1.00000
vn 0.00000 0.00000 -1.00000
vn 0.00000 0.00000 -1.00000
vn 0.00000 0.00000 -1.00000
vn 0.00000 0.00000 -1.00000
vn 0.00000 0.00000 -1.00000
vn 0.00000 0.00000 -1.00000
vn 0.00000 0.00000 -1.00000
vn 0.00000 0.00000 -1.00000
vn 0.00000 0.00000 -1.00000
vn 0.00000 0.00000 -1.00000
vn 0.00000 0.00000 -1.00000
f 1//1 2//2 66//66
f 2//2 3//3 67//67
f 3//3 4//4 68//68
f 4//4 5//5 69//69
f 5//5 6//6 70//70
f 6//6 7//7 71//71
f 7//7 8//8 72//72
f 8//8 9//9 73//73
f 9//9 10//10 74//74
f 10//10 11//11 75//75
f 11//11 12//12 76//76
f 12//12 13//13 77//77
f 13//13 14//14 78//78
f 14//14 15//15 79//79
f 15//15 16//16 80//80
f 16//16 17//17 81//81
f 17//17 18//18 82//82
f 18//18 19//19 83//83
f 19//19 20//20 84//84
f 20//20 21//21 85//85
f 21//21 22//22 86//86
f 22//22 23//23 87//87
f 23//23 24//24 88//88
f 24//24 25//25 89//89
f 25//25 26//26 90//90
f 26//26 27//27 91//91
f 27//27 28//28 92//92
f 28//28 29//29 93//93
f 29//29 30//30 94//94
f 30//30 31//31 95//95
f 31//31 32//32 96//96
f 32//32 33//33 97//97
f 33//33 34//34 98//98
f 34//34 35//35 99//99
f 35//35 36//36 100//100
f 36//36 37//37 101//101
f 37//37 38//38 102//102
f 38//38 39//39 103//103
f 39//39 40//40 104//104
f 40//40 41//41 105//105
f 41//41 42//42 106//106
f 42//42 43//43 107//107
f 43//43 44//44 108//108
f 44//44 45//45 109//109
f 45//45 46//46 110//110
f 46//46 47//47 111//111
f 47//47 48//48 112//112
f 48//48 49//49 113//113
f 49//49 50//50 114//114
f 50//50 51//51 115//115
f 51//51 52//52 116//116
f 52//52 53//53 117//117
f 53//53 54//54 118//118
f 54//54 55//55 119//119
f 55//55 56//56 120//120
f 56//56 57//57 121//121
f 57//57 58//58 122//122
f 58//58 59//59 123//123
f 59//59 60//60 124//124
f 60//60 61//61 125//125
f 61//61 62//62 126//126
f 62//62 63//63 127//127
f 63//63 64//64 128//128
f 64//64 65//65 129//129
f 2//2 67//67 66//66
f 3//3 68//68 67//67
f 4//4 69//69 68//68
f 5//5 70//70 69//69
f 6//6 71//71 70//70
f 7//7 72//72 71//71
f 8//8 73//73 72//72
f 9//9 74//74 73//73
f 10//10 75//75 74//74
f 11//11 76//76 75//75
f 12//12 77//77 76//76
f 13//13 78//78 77//77
f 14//14 79//79 78//78
f 15//15 80//80 79//79
f 16//16 81//81 80//80
f 17//17 82//82 81//81
f 18//18 83//83 82//82
f 19//19 84//84 83//83
f 20//20 85//85 84//84
f 21//21 86//86 85//85
f 22//22 87//87 86//86
f 23//23 88//88 87//87
f 24//24 89//89 88//88
f 25//25 90//90 89//89
f 26//26 91//91 90//90
f 27//27 92//92 91//91
f 28//28 93//93 92//92
f 29//29 94//94 93//93
f 30//30 95//95 94//94
f 31//31 96//96 95//95
f 32//32 97//97 96//96
f 33//33 98//98 97//97
f 34//34 99//99 98//98
f 35//35 100//100 99//99
f 36//36 101//101 100//100
f 37//37 102//102 101//101
f 38//38 103//103 102//102
f 39//39 104//104 103//103
f 40//40 105//105 104//104
f 41//41 106//106 105//105
f 42//42 107//107 106//106
f 43//43 108//108 107//107
f 44//44 109//109 108//108
f 45//45 110//110 109//109
f 46//46 111//111 110//110
f 47//47 112//112 111//111
f 48//48 113//113 112//112
f 49//49 114//114 113//113
f 50//50 115//115 114//114
f 51//51 116//116 115//115
f 52//52 117//117 116//116
f 53//53 118//118 117//117
f 54//54 119//119 118//118
f 55//55 120//120 119//119
f 56//56 121//121 120//120
f 57//57 122//122 121//121
f 58//58 123//123 122//122
f 59//59 124//124 123//123
f 60//60 125//125 124//124
f 61//61 126//126 125//125
f 62//62 127//127 126//126
f 63//63 128//128 127//127
f 64//64 129//129 128//128
f 65//65 130//130 129//129
